<?xml version="1.0" standalone="no"?>
<!DOCTYPE svg PUBLIC "-//W3C//DTD SVG 20010904//EN"
 "http://www.w3.org/TR/2001/REC-SVG-20010904/DTD/svg10.dtd">
<svg version="1.0" xmlns="http://www.w3.org/2000/svg"
 width="1280.000000pt" height="853.000000pt" viewBox="0 0 1280.000000 853.000000"
 preserveAspectRatio="xMidYMid meet">
<metadata>
Created by potrace 1.15, written by Peter Selinger 2001-2017
</metadata>
<g transform="translate(0.000000,853.000000) scale(0.100000,-0.100000)"
fill="#000000" stroke="none">
<path d="M4823 7438 c-48 -53 -33 -93 54 -143 l46 -28 -26 -14 c-32 -16 -35
-48 -11 -95 16 -31 16 -31 -8 -24 -128 35 -314 77 -331 74 -18 -2 -22 -10 -22
-38 l0 -35 90 -1 c87 -1 186 -20 293 -58 26 -9 87 -53 151 -108 59 -51 186
-150 282 -219 271 -197 253 -176 294 -354 19 -82 41 -170 49 -195 16 -47 12
-66 -7 -39 -17 22 -56 42 -72 35 -14 -5 -114 33 -139 53 -11 9 -20 10 -35 1
-25 -13 -26 -27 -7 -66 8 -16 17 -42 20 -59 6 -28 3 -32 -51 -60 -73 -37 -172
-135 -207 -203 -33 -66 -56 -153 -56 -215 0 -44 -5 -55 -56 -118 -31 -38 -60
-69 -65 -69 -5 0 -9 -5 -9 -11 0 -7 -33 -77 -73 -158 -70 -141 -110 -241 -253
-641 -57 -160 -71 -189 -105 -222 -29 -28 -39 -46 -39 -70 0 -31 -123 -279
-142 -286 -11 -5 -38 -57 -43 -84 -5 -26 -327 -636 -371 -705 -19 -28 -34 -57
-34 -65 0 -7 -14 -33 -30 -58 -16 -25 -35 -60 -41 -78 -6 -17 -19 -37 -30 -42
-24 -13 -61 -84 -53 -104 3 -8 -4 -24 -15 -35 -24 -24 -62 -96 -55 -104 8 -8
-19 -47 -32 -47 -7 0 -21 -16 -33 -36 -12 -19 -25 -33 -30 -29 -13 7 -48 -40
-56 -74 -3 -15 -2 -39 4 -52 9 -25 8 -27 -58 -152 l-24 -46 22 -18 c29 -24 19
-53 -18 -53 -22 0 -29 -7 -43 -45 -16 -43 -16 -45 2 -58 24 -17 16 -27 -20
-27 -23 0 -30 -7 -44 -43 -20 -54 -20 -59 4 -80 25 -21 18 -37 -15 -37 -19 0
-27 -9 -41 -46 -17 -44 -17 -47 0 -59 16 -12 15 -14 -12 -20 -23 -5 -32 -14
-41 -44 -14 -50 -14 -57 5 -75 14 -14 13 -17 -9 -27 -26 -12 -52 -75 -41 -103
4 -10 1 -16 -9 -16 -9 0 -19 -16 -25 -41 -10 -41 -7 -68 11 -80 5 -4 0 -10
-11 -13 -16 -5 -23 -19 -28 -54 -4 -26 -10 -49 -15 -52 -4 -3 -10 -39 -13 -80
-3 -41 -8 -86 -12 -100 -10 -37 -5 -186 7 -249 19 -93 110 -239 154 -245 9 -1
20 -7 24 -14 9 -15 93 -52 104 -45 5 3 20 0 33 -8 19 -10 42 -10 102 -2 97 13
196 60 265 125 28 27 53 48 57 48 10 0 50 45 50 56 0 5 9 15 20 22 12 7 25 24
30 37 5 14 16 25 24 25 15 0 56 50 56 68 0 5 14 25 31 43 19 20 29 40 26 51
-4 13 1 18 16 18 24 0 70 58 66 82 -2 7 12 29 30 47 26 28 32 41 27 64 -5 24
-3 27 12 23 22 -7 35 2 60 43 19 31 19 36 5 57 -15 23 -14 24 10 24 34 0 73
60 58 89 -16 29 -14 34 15 28 21 -4 29 2 50 35 23 35 24 42 11 61 -18 29 -12
45 16 40 19 -4 27 3 42 36 14 32 15 43 6 55 -18 21 -3 39 25 32 19 -5 26 0 38
23 9 17 23 28 33 27 12 -1 27 17 46 52 15 28 36 53 45 54 9 0 23 2 31 2 8 1
26 23 39 50 23 46 23 51 9 76 -16 26 -11 37 411 846 284 545 438 830 460 851
35 34 42 79 21 127 -10 22 3 52 127 290 76 146 141 266 144 266 3 0 27 -78 53
-172 97 -346 297 -1081 377 -1383 45 -170 90 -328 101 -350 10 -22 27 -84 38
-138 26 -130 45 -166 101 -195 40 -21 56 -23 155 -20 98 3 114 1 145 -18 65
-40 110 -49 240 -49 69 0 202 7 297 14 l172 14 83 -36 c118 -50 162 -60 258
-60 91 0 274 39 403 86 37 13 67 24 68 23 0 0 38 -264 83 -586 63 -452 79
-586 69 -588 -7 -2 -13 -7 -13 -12 0 -12 49 -19 78 -11 27 8 43 31 20 31 -10
0 -34 148 -96 598 -80 578 -82 598 -66 630 13 27 21 33 38 28 11 -3 29 -6 38
-6 12 0 19 -12 24 -46 5 -36 12 -47 32 -55 25 -10 25 -10 4 -24 -17 -13 -19
-20 -11 -48 5 -17 13 -41 18 -52 4 -11 14 -42 20 -70 14 -56 28 -78 45 -68 6
4 5 0 -2 -9 -11 -13 -6 -30 28 -104 23 -49 52 -105 64 -124 92 -143 124 -186
201 -268 48 -51 106 -106 129 -122 154 -111 274 -177 334 -185 20 -3 38 -9 41
-14 6 -9 71 -26 195 -51 139 -28 376 -13 505 32 31 10 65 20 76 22 22 3 188
84 245 119 62 38 184 134 240 189 77 75 180 202 180 221 0 9 9 21 20 27 11 6
27 24 36 41 14 29 14 32 -3 44 -17 13 -17 14 4 9 17 -5 27 2 47 35 33 51 32
57 -1 75 l-28 15 30 -5 c38 -6 49 2 69 49 l15 38 -30 13 c-22 9 -27 15 -16 19
8 3 24 3 36 0 16 -4 23 1 31 21 24 63 23 71 -10 83 -39 15 -31 33 15 33 31 0
35 4 44 37 11 40 3 53 -31 53 -10 0 -18 7 -18 15 0 15 9 18 47 15 16 -1 24 5
27 22 13 58 12 62 -22 71 -22 7 -31 15 -27 24 3 8 5 18 5 23 0 5 16 6 35 3 30
-5 35 -3 35 13 0 11 3 29 6 41 5 19 1 22 -28 25 -25 2 -33 8 -33 23 0 16 6 20
33 17 22 -1 32 2 32 12 0 7 3 27 6 44 6 29 4 31 -30 37 -26 5 -36 12 -36 26 0
15 7 19 36 19 l35 0 -3 43 c-3 38 -6 43 -35 52 -41 11 -43 25 -4 25 37 0 39 4
33 58 -4 38 -8 44 -33 49 -41 8 -45 20 -9 28 26 6 30 11 30 41 0 20 -8 42 -20
54 -12 12 -15 22 -9 26 12 7 2 82 -13 102 -6 6 -20 12 -32 12 -21 1 -21 1 -1
12 11 6 21 12 23 14 7 5 -21 84 -30 84 -4 0 -8 12 -8 26 0 15 -10 47 -23 73
-13 25 -39 78 -57 116 -60 122 -155 254 -249 345 -68 66 -165 150 -173 150 -5
0 -30 16 -57 35 -27 19 -80 49 -117 66 -38 17 -83 37 -100 44 -17 8 -49 17
-70 21 -22 3 -43 9 -49 14 -11 9 -131 28 -187 29 -21 1 -48 5 -59 10 -15 5 15
11 97 20 192 20 533 67 928 129 404 64 396 61 396 131 0 43 -33 101 -57 101
-10 0 -124 -16 -253 -36 l-236 -36 -111 80 c-62 44 -109 83 -106 86 4 3 -2 13
-13 20 -18 14 -18 15 -1 33 25 29 22 69 -8 89 -22 14 -41 16 -123 10 -53 -4
-113 -9 -133 -12 l-36 -6 -16 84 c-26 131 -101 385 -121 406 -29 32 -91 43
-291 49 -222 6 -309 -4 -615 -72 -480 -107 -498 -109 -1016 -109 l-442 -1 -23
44 c-127 239 -368 359 -854 426 -99 14 -206 27 -237 31 -49 5 -58 9 -58 25 0
11 7 22 15 25 22 9 18 32 -7 45 -13 7 -45 17 -73 23 l-50 11 225 99 225 98
125 -31 c142 -35 349 -99 368 -114 7 -6 36 -11 65 -13 102 -5 315 -100 500
-223 58 -39 116 -85 129 -101 13 -17 33 -43 46 -58 l22 -27 25 28 c13 15 22
34 19 42 -7 18 -257 185 -385 257 l-96 54 21 26 21 26 92 -19 c51 -11 145 -35
210 -55 195 -60 194 -60 218 -14 18 35 19 84 3 98 -7 5 -71 22 -141 36 -70 15
-176 41 -234 59 -105 32 -106 32 -120 72 -7 21 -19 42 -25 46 -18 11 -47 -8
-70 -47 -21 -35 -42 -44 -51 -20 -3 7 -19 16 -36 19 -18 4 -31 13 -31 22 0 16
-12 20 -24 8 -15 -15 -108 -9 -216 16 -167 37 -311 37 -437 -3 l-92 -29 -652
295 -651 294 -27 81 c-44 131 -82 184 -201 286 -71 60 -110 123 -110 176 0 72
-54 111 -152 111 -74 0 -89 9 -213 118 -77 68 -108 77 -142 40z m182 -236 c43
-34 47 -42 49 -84 l2 -46 -56 21 c-30 11 -65 32 -77 46 -24 28 -38 74 -28 91
14 22 63 10 110 -28z m75 -202 c21 -11 53 -38 71 -60 18 -22 39 -40 48 -41 23
-1 50 -19 224 -151 135 -103 177 -142 164 -154 -2 -2 -19 9 -38 25 -19 15
-113 86 -209 156 -147 107 -208 154 -304 237 -17 14 4 9 44 -12z m198 2 c58
-29 80 -45 147 -105 54 -49 82 -84 105 -131 18 -36 30 -70 28 -76 -5 -17 -289
203 -316 245 -22 35 -23 38 -6 56 20 22 19 22 42 11z m464 -481 c109 -69 173
-150 214 -272 13 -39 24 -74 24 -78 0 -4 -13 -8 -28 -8 -24 0 -31 7 -46 44
-27 64 -85 150 -150 220 -50 55 -88 123 -67 123 4 0 28 -13 53 -29z m1020
-459 c4 -4 -30 -5 -75 -3 -88 3 -297 -13 -412 -33 l-70 -12 -97 49 c-68 33
-98 53 -98 65 0 72 -69 239 -124 299 -20 22 -36 43 -36 46 0 5 900 -401 912
-411z m-937 243 c50 -75 92 -161 84 -170 -9 -9 -105 17 -121 33 -13 13 -78
236 -78 268 0 18 66 -57 115 -131z m1028 -291 c20 -4 37 -9 37 -13 0 -8 -327
-151 -362 -158 -32 -6 -141 34 -132 49 12 18 -7 78 -27 89 -18 9 -26 6 -48
-14 -26 -26 -26 -26 -50 -6 -13 11 -22 21 -20 24 24 23 496 46 602 29z m618
-25 c142 -31 185 -52 173 -83 -10 -26 -124 -11 -294 37 -85 25 -168 48 -185
52 l-30 8 30 7 c67 17 169 10 306 -21z m349 -120 c0 -36 -2 -40 -15 -29 -8 7
-15 25 -15 41 0 19 5 29 15 29 11 0 15 -11 15 -41z m-2651 -425 c1 -18 -31
-22 -69 -9 -41 15 -40 24 3 76 l32 38 17 -47 c9 -26 17 -52 17 -58z m-119
-124 c6 0 15 -11 21 -23 9 -21 -3 -49 -94 -221 -94 -177 -109 -200 -152 -231
-27 -19 -51 -33 -52 -31 -9 8 105 294 169 426 l70 145 14 -32 c8 -18 19 -33
24 -33z m268 -161 c45 -28 82 -55 82 -59 0 -18 -42 -21 -66 -5 -14 9 -35 15
-47 13 -29 -4 -35 -43 -8 -57 25 -14 51 -40 51 -52 0 -5 -22 -7 -53 -3 -49 6
-124 -4 -171 -22 -15 -6 -4 22 45 114 35 67 68 122 74 122 6 0 47 -23 93 -51z
m238 -150 c76 -43 76 -53 -1 -21 -36 15 -65 33 -65 40 0 17 6 16 66 -19z m8
-92 c96 -39 114 -66 122 -179 l5 -73 -25 59 c-30 71 -87 140 -149 181 -43 28
-58 45 -39 45 4 0 43 -15 86 -33z m324 -113 l24 -82 -101 -196 c-56 -108 -104
-196 -106 -196 -7 0 7 87 21 123 8 20 17 76 20 125 4 60 17 122 42 200 31 97
39 112 56 110 15 -2 25 -21 44 -84z m-1166 -212 c-73 -142 -88 -155 -46 -41
19 52 42 113 50 137 15 41 17 42 34 27 17 -15 15 -21 -38 -123z m3200 -7 c-2
-41 -8 -65 -15 -65 -7 0 -86 13 -177 29 l-165 28 65 7 c76 9 224 40 260 55 14
5 27 10 30 10 3 1 3 -28 2 -64z m-2829 -15 c52 -12 57 -15 57 -40 0 -52 -31
-195 -77 -360 l-46 -166 -50 24 c-66 32 -211 41 -277 19 -24 -9 -46 -14 -48
-12 -8 8 82 166 113 198 43 44 52 79 33 121 -15 30 -14 34 24 111 22 44 51 99
65 122 l24 42 62 -24 c34 -12 88 -28 120 -35z m1207 16 c118 -24 356 -38 587
-34 117 2 209 1 205 -2 -4 -3 -32 -14 -62 -24 -98 -32 -253 -114 -342 -181
-107 -81 -200 -184 -266 -295 -28 -47 -57 -93 -64 -103 -11 -16 -26 28 -109
325 -53 189 -94 346 -92 350 2 4 18 1 36 -7 17 -7 66 -20 107 -29z m3897 -42
c-3 -3 -12 -4 -19 -1 -8 3 -5 6 6 6 11 1 17 -2 13 -5z m-2133 -39 c3 -9 0 -15
-9 -15 -8 0 -15 7 -15 15 0 8 4 15 9 15 5 0 11 -7 15 -15z m2320 -61 c11 -7
17 -16 14 -20 -4 -3 -69 -8 -145 -10 l-138 -5 35 19 c19 11 53 23 75 26 22 4
51 13 65 21 26 14 40 9 94 -31z m-714 -14 c0 -6 -31 -10 -72 -10 -51 0 -68 3
-58 10 20 13 130 13 130 0z m-2236 -261 c5 -5 7 -11 5 -14 -7 -6 -109 27 -109
36 0 9 92 -10 104 -22z m2031 -114 c-45 -28 -65 -31 -65 -11 0 7 18 18 43 23
64 16 65 15 22 -12z m-295 -84 c0 -11 3 -26 6 -34 4 -11 -8 -21 -41 -36 -70
-31 -82 -17 -40 49 18 29 32 40 50 40 18 0 25 -5 25 -19z m857 -263 c14 -19
41 -118 68 -257 29 -145 29 -141 11 -141 -9 0 -12 8 -8 25 3 16 0 25 -8 25 -7
0 -10 8 -7 20 3 11 -1 27 -9 34 -8 8 -11 22 -7 31 4 11 0 21 -9 26 -10 5 -14
18 -10 34 2 15 0 25 -8 25 -6 0 -9 8 -5 19 3 10 -1 23 -9 30 -8 6 -12 21 -9
31 3 12 -1 22 -11 26 -11 4 -13 11 -6 23 6 12 5 22 -2 29 -11 11 -3 32 11 32
5 0 13 -6 18 -12z m141 -10 c7 -6 12 -33 12 -62 0 -51 -27 -268 -37 -296 -6
-16 -48 181 -63 295 -6 51 -6 72 3 77 14 9 66 0 85 -14z m148 -56 c8 -12 12
-26 9 -32 -3 -5 -8 -26 -11 -46 -2 -20 -11 -60 -20 -89 -13 -46 -22 -58 -67
-89 -29 -20 -55 -36 -58 -36 -6 0 22 193 40 279 5 24 14 47 21 51 17 11 67
-12 86 -38z m104 -55 c16 -12 29 -25 29 -28 1 -9 -129 -112 -135 -106 -6 6 14
87 26 102 4 6 10 23 14 38 8 32 20 31 66 -6z m114 -112 c52 -64 57 -31 -44
-300 l-68 -180 -79 -3 -80 -3 -26 39 c-15 21 -27 46 -27 56 0 11 19 87 41 170
34 121 47 155 67 171 30 24 154 103 164 104 4 1 27 -24 52 -54z m-5794 -100
c-10 -35 -119 -210 -126 -202 -6 6 75 279 88 295 34 44 43 43 46 -6 2 -26 -2
-65 -8 -87z m-76 73 c-23 -37 -144 -189 -144 -180 0 11 137 192 146 192 3 0 2
-5 -2 -12z m-46 -187 c-33 -118 -47 -154 -80 -197 -42 -57 -68 -74 -68 -46 1
30 36 187 46 203 16 28 138 189 140 186 2 -1 -15 -67 -38 -146z m5617 -1 c-42
-148 -44 -155 -51 -147 -13 12 -33 153 -26 179 6 23 99 104 109 95 1 -2 -13
-59 -32 -127z m-2091 55 c6 -36 2 -47 -40 -112 l-47 -72 -31 23 c-50 38 -132
76 -255 117 l-116 39 75 -6 c55 -4 87 -1 119 10 24 9 67 16 95 16 28 0 80 11
116 23 72 26 74 25 84 -38z m2491 18 c22 -37 25 -50 16 -62 -6 -9 -15 -25 -20
-36 -10 -21 -181 -231 -181 -222 0 2 27 76 61 162 53 137 84 205 94 205 2 0
15 -21 30 -47z m-685 27 c0 -5 -4 -10 -10 -10 -5 0 -10 5 -10 10 0 6 5 10 10
10 6 0 10 -4 10 -10z m-2364 -21 c18 -20 18 -20 -11 -13 -42 10 -49 15 -34 25
20 12 24 11 45 -12z m2379 -38 c-6 -5 -20 -12 -32 -16 -18 -5 -22 -3 -17 9 3
9 18 16 32 16 16 0 22 -4 17 -9z m-2225 -64 c68 -21 152 -52 185 -68 59 -28
114 -73 103 -84 -10 -10 -56 17 -61 35 -5 20 -57 32 -127 29 -71 -2 -288 19
-307 30 -10 6 -12 11 -5 11 24 0 11 28 -19 40 l-31 13 43 23 c50 26 46 26 219
-29z m2386 16 c-11 -11 -17 4 -9 23 7 18 8 18 11 1 2 -10 1 -21 -2 -24z
m-5457 -64 c-28 -73 -37 -87 -59 -99 -33 -18 -24 8 27 82 25 38 48 68 49 68 2
0 -5 -23 -17 -51z m6038 -1 c14 -36 17 -58 11 -68 -6 -8 -50 -41 -100 -72 -65
-43 -99 -58 -125 -58 l-35 0 68 83 c76 93 145 167 155 167 3 0 15 -24 26 -52z
m-6231 14 c-17 -16 -18 -16 -5 5 7 12 15 20 18 17 3 -2 -3 -12 -13 -22z m213
-36 c-6 -21 -13 -36 -16 -33 -3 3 0 22 7 42 16 47 23 40 9 -9z m-225 -95 l-18
-91 -46 -30 c-26 -17 -50 -30 -53 -30 -14 0 -6 42 14 83 27 52 109 170 116
164 2 -3 -4 -46 -13 -96z m5514 5 c-2 -12 -11 -22 -20 -24 -23 -4 -38 27 -27
57 9 23 10 23 30 5 11 -10 19 -27 17 -38z m-5363 -134 c-30 -88 -64 -181 -74
-205 -18 -41 -37 -64 -46 -56 -3 4 148 400 161 420 21 34 8 -18 -41 -159z
m6134 126 c4 -13 11 -35 15 -50 6 -25 4 -27 -36 -33 -24 -3 -72 -5 -107 -3
l-65 3 80 52 c43 29 85 53 92 53 7 0 16 -10 21 -22z m-6183 -147 c-33 -88 -62
-158 -64 -156 -2 2 13 63 33 136 28 101 43 140 61 157 14 12 27 22 28 22 2 0
-24 -72 -58 -159z m-67 -93 c-29 -106 -54 -195 -56 -197 -2 -3 -12 4 -23 15
-20 19 -20 20 3 140 24 122 38 154 95 216 14 15 27 26 30 24 2 -3 -20 -91 -49
-198z m2181 171 c0 -18 -53 -80 -61 -72 -4 4 -12 25 -17 46 l-10 37 44 0 c24
0 44 -5 44 -11z m3730 -35 c0 -4 -21 -31 -47 -61 l-46 -55 -15 28 c-8 16 -19
44 -23 61 l-7 33 69 0 c38 0 69 -3 69 -6z m80 2 c0 -7 -71 -49 -75 -44 -11 11
29 48 51 48 13 0 24 -2 24 -4z m237 -12 l52 -5 7 -47 c4 -26 8 -67 8 -92 l1
-45 -159 -79 c-166 -82 -160 -81 -216 -47 -8 5 -32 16 -52 25 -21 8 -38 21
-38 28 0 7 16 54 35 103 34 89 35 90 102 133 74 46 70 45 260 26z m-6287 -13
c0 -11 -78 -129 -91 -136 -5 -4 -9 14 -9 39 0 41 3 47 43 75 44 32 57 37 57
22z m-150 -42 c-12 -23 -24 -39 -26 -36 -5 5 35 77 42 77 3 0 -5 -18 -16 -41z
m32 -1 c-7 -7 -12 -8 -12 -2 0 6 3 14 7 17 3 4 9 5 12 2 2 -3 -1 -11 -7 -17z
m4 -75 c-2 -32 -5 -62 -5 -67 -1 -12 -61 44 -61 57 0 9 55 67 64 67 3 0 4 -26
2 -57z m77 -56 l-17 -87 -23 22 c-13 12 -23 30 -23 40 0 17 69 122 76 115 2
-2 -4 -42 -13 -90z m4847 71 c10 -6 1 -8 -29 -4 -24 2 -49 10 -55 16 -8 9 -1
10 29 4 22 -3 47 -11 55 -16z m1097 -38 l-22 -61 -3 43 c-3 34 1 46 18 60 12
10 24 18 25 18 2 0 -6 -27 -18 -60z m-1069 -14 c4 -17 -1 -19 -58 -13 -66 6
-76 10 -65 27 4 6 29 10 63 8 47 -2 57 -6 60 -22z m1522 -119 c0 -83 2 -81
-122 -116 l-65 -18 -53 27 c-28 14 -53 29 -53 33 -2 6 268 144 286 146 4 1 7
-32 7 -72z m-6431 -65 c-16 -79 -29 -73 -29 15 l0 77 20 -20 c19 -18 20 -25 9
-72z m129 28 c-11 -33 -24 -45 -32 -31 -5 8 29 61 39 61 2 0 -1 -14 -7 -30z
m-88 -34 c-19 -24 -27 -19 -22 15 4 28 6 29 20 15 13 -12 13 -18 2 -30z m-104
-95 c-24 -23 -25 -12 -7 61 l16 67 3 -56 c2 -40 -1 -61 -12 -72z m84 -36 c-24
-63 -45 -113 -47 -111 -3 2 3 44 13 93 12 65 23 95 42 115 14 15 28 26 30 23
3 -3 -14 -57 -38 -120z m53 37 c-29 -68 -42 -76 -23 -15 22 71 33 94 42 85 4
-4 -4 -35 -19 -70z m4763 51 c63 -34 62 -33 40 -45 -18 -10 -18 -11 -2 -24 31
-22 8 -37 -46 -31 -26 4 -53 9 -58 12 -6 3 -10 31 -10 61 0 64 6 66 76 27z
m1327 1 l52 -27 -45 -13 c-50 -15 -87 -18 -93 -6 -10 15 6 72 19 72 8 0 38
-12 67 -26z m257 -43 c0 -64 -10 -68 -79 -30 -33 18 -61 37 -61 40 0 9 112 37
128 31 6 -2 12 -20 12 -41z m-6443 -28 c-3 -10 -5 -4 -5 12 0 17 2 24 5 18 2
-7 2 -21 0 -30z m5071 4 c4 -30 -5 -34 -33 -13 -17 12 -17 16 -6 30 19 23 35
15 39 -17z m1276 -18 c83 -45 83 -45 64 -128 -10 -45 -14 -50 -32 -45 -25 8
-227 169 -227 181 0 8 71 30 103 32 9 1 51 -17 92 -40z m-254 21 c0 -5 -5 -10
-11 -10 -5 0 -7 5 -4 10 3 6 8 10 11 10 2 0 4 -4 4 -10z m-6120 -56 c0 -61
-10 -66 -43 -22 l-20 27 29 25 c16 14 30 26 32 26 1 0 2 -25 2 -56z m2408 -22
l65 -72 -51 0 c-32 0 -56 6 -66 15 -28 29 -49 141 -24 133 6 -2 41 -37 76 -76z
m3588 41 c-11 -11 -19 6 -11 24 8 17 8 17 12 0 3 -10 2 -21 -1 -24z m69 27
c16 -7 17 -9 3 -9 -9 -1 -23 -4 -32 -7 -11 -4 -16 -1 -16 10 0 17 14 19 45 6z
m191 -99 c60 -49 119 -100 132 -114 l23 -25 -28 -68 c-18 -42 -35 -69 -44 -68
-8 1 -73 39 -144 86 l-131 85 -18 77 c-10 43 -15 80 -11 84 8 8 74 29 96 31 9
1 65 -39 125 -88z m-3626 47 c30 -10 102 -23 159 -28 57 -5 106 -11 108 -14 7
-6 -41 -14 -166 -27 l-114 -11 -56 56 -56 56 35 -6 c19 -4 60 -16 90 -26z
m2270 -4 c0 -14 -64 -93 -71 -88 -5 3 -9 25 -9 50 l0 44 40 0 c22 0 40 -3 40
-6z m183 -1 c-7 -2 -19 -2 -25 0 -7 3 -2 5 12 5 14 0 19 -2 13 -5z m933 -20
c3 -16 10 -43 15 -62 5 -19 7 -37 5 -39 -2 -2 -23 9 -46 24 -33 22 -40 33 -38
53 5 56 53 73 64 24z m-1065 -3 c24 0 36 -27 20 -43 -19 -19 -12 -37 14 -37
28 0 30 -5 13 -41 -11 -24 -13 -25 -77 -17 -92 12 -93 12 -78 41 21 41 82 116
85 106 2 -5 12 -9 23 -9z m214 -79 c-3 -12 -15 -26 -26 -31 -15 -9 -19 -7 -19
7 0 28 30 67 42 55 6 -6 7 -19 3 -31z m-1642 9 c13 -11 -189 -23 -209 -12 -13
7 1 12 57 19 75 9 137 7 152 -7z m2472 -26 l54 -36 32 -135 c17 -73 29 -136
27 -139 -3 -2 -46 14 -96 37 l-91 42 -26 78 c-25 75 -26 79 -9 110 9 18 23 39
30 47 8 7 14 18 14 23 0 14 7 11 65 -27z m-2880 -16 c-22 -4 -69 -7 -105 -6
l-65 1 90 11 c92 12 153 8 80 -6z m2625 3 c0 -23 -28 -54 -41 -46 -14 9 -11
26 8 47 21 23 33 23 33 -1z m-588 -33 c-7 -7 -12 -8 -12 -2 0 14 12 26 19 19
2 -3 -1 -11 -7 -17z m1061 -100 c64 -43 117 -84 117 -91 0 -7 -16 -40 -36 -73
-40 -68 -30 -65 -126 -31 -30 10 -30 11 -71 184 -15 62 -20 100 -13 96 6 -4
64 -42 129 -85z m-6339 54 c-1 -6 -2 -23 -2 -36 -2 -19 -11 -27 -49 -40 -25
-9 -47 -15 -48 -13 -1 1 13 26 32 55 23 35 40 52 51 50 9 -2 17 -9 16 -16z
m5120 1 l29 -5 -30 -19 c-29 -18 -31 -18 -83 -1 -78 27 -79 47 -4 38 33 -4 72
-9 88 -13z m-5064 -12 l31 -19 -32 -11 c-18 -6 -34 -11 -35 -11 -2 0 -4 14 -4
30 0 35 0 35 40 11z m5520 -30 c0 -34 -9 -61 -19 -61 -13 0 -32 52 -26 71 4
11 15 19 26 19 14 0 19 -7 19 -29z m425 -22 c9 -28 15 -53 12 -55 -3 -3 -19 2
-35 10 l-30 16 15 40 c9 22 17 40 19 40 1 0 10 -23 19 -51z m-785 26 c-1 -30
-17 -37 -61 -25 -41 11 -42 13 -24 26 22 16 85 16 85 -1z m485 -16 c-6 -16 -9
-18 -16 -8 -4 8 -3 19 3 26 15 18 21 9 13 -18z m237 -11 c-7 -7 -12 -8 -12 -2
0 14 12 26 19 19 2 -3 -1 -11 -7 -17z m-5887 -28 c-21 -22 -41 -38 -43 -35
-11 11 11 57 31 65 46 18 50 9 12 -30z m4969 9 c-6 -11 -24 -2 -24 11 0 5 7 7
15 4 8 -4 12 -10 9 -15z m246 1 c0 -5 -5 -10 -11 -10 -5 0 -7 5 -4 10 3 6 8
10 11 10 2 0 4 -4 4 -10z m-5272 -32 c-3 -33 -4 -33 -68 -40 -35 -4 -66 -5
-69 -2 -12 12 19 39 65 55 71 25 76 24 72 -13z m5249 -31 c4 -5 -102 -79 -144
-100 l-31 -17 -26 66 -27 66 23 22 23 21 89 -27 c49 -15 91 -29 93 -31z m673
29 c0 -14 -115 -339 -129 -364 -6 -11 -19 3 -51 59 -23 41 -49 84 -57 97 -19
31 -3 122 22 122 16 0 141 65 174 91 24 19 41 17 41 -5z m153 -150 c31 -95 77
-256 77 -270 0 -6 -100 -69 -104 -65 -15 21 -107 474 -98 483 2 3 23 -4 46
-16 41 -20 43 -23 79 -132z m-790 21 c-5 -77 -20 -117 -45 -117 -5 0 -22 -10
-39 -22 l-30 -23 -19 25 c-11 14 -27 39 -36 56 -16 30 -16 32 3 53 28 30 157
120 165 115 3 -2 4 -41 1 -87z m125 52 c19 -6 32 -12 30 -14 -1 -2 -32 -26
-68 -54 l-65 -50 -3 61 c-4 83 -1 89 40 77 18 -6 48 -15 66 -20z m853 -89 c5
-19 12 -57 16 -83 6 -47 5 -49 -42 -97 l-49 -50 -23 45 c-12 25 -39 98 -59
162 -20 65 -39 123 -41 130 -3 7 38 -7 91 -30 89 -38 97 -45 107 -77z m-6370
55 c-39 -30 -73 -55 -76 -55 -3 0 7 34 30 98 3 7 25 12 61 12 l56 0 -71 -55z
m133 40 c-4 -8 -8 -15 -10 -15 -2 0 -4 7 -4 15 0 8 4 15 10 15 5 0 7 -7 4 -15z
m5945 -164 c18 -99 34 -201 35 -228 1 -48 1 -48 -46 -70 -26 -13 -53 -20 -60
-17 -7 2 -26 26 -43 52 -62 98 -63 74 7 268 34 95 65 174 68 174 3 0 21 -81
39 -179z m-6161 107 c-19 -57 -27 -68 -84 -111 -35 -26 -64 -45 -64 -42 0 3
20 45 44 93 35 69 51 91 77 103 19 9 37 17 41 18 3 0 -3 -27 -14 -61z m-78 36
c0 -3 -19 -41 -42 -87 l-41 -82 -12 50 -12 50 40 42 c22 23 46 39 53 36 8 -3
14 -7 14 -9z m260 -8 c0 -15 -50 -92 -137 -209 -76 -102 -139 -184 -140 -183
-2 1 8 37 21 79 22 71 32 86 137 206 63 72 115 130 117 131 1 0 2 -11 2 -24z
m-40 9 c0 -2 -38 -47 -85 -100 -47 -52 -85 -90 -84 -83 2 42 30 81 94 131 75
59 75 59 75 52z m5606 -11 c21 -6 20 -11 -41 -157 -106 -254 -105 -253 -158
-219 -51 34 -56 50 -56 157 l0 100 81 63 c83 63 112 73 174 56z m108 -16 c-9
-32 -14 -35 -24 -18 -16 24 -11 40 11 40 16 0 19 -4 13 -22z m-40 -174 c-39
-172 -66 -253 -85 -259 -21 -7 -69 11 -85 33 -10 13 -9 22 2 44 8 15 14 33 14
41 0 12 39 112 115 294 l16 37 24 -40 24 -40 -25 -110z m713 117 c12 -9 23
-19 23 -23 0 -13 -48 -63 -55 -57 -3 4 -12 30 -20 58 -13 51 -13 52 8 45 12
-4 32 -14 44 -23z m-6708 -75 c10 -39 9 -41 -30 -78 -23 -22 -43 -37 -46 -34
-3 3 5 34 17 68 29 78 43 106 46 93 2 -6 7 -28 13 -49z m6092 -58 c29 -51 52
-100 51 -109 -2 -32 -62 -148 -82 -159 -36 -19 -105 9 -96 39 3 9 7 34 10 56
6 59 54 265 61 265 1 0 27 -42 56 -92z m-5958 35 c-9 -27 -30 -65 -47 -86 -32
-40 -38 -38 -50 20 -7 29 -3 34 46 72 29 22 56 41 60 41 4 0 0 -21 -9 -47z
m5512 -45 c-3 -40 -9 -75 -12 -78 -3 -3 -20 13 -38 34 l-33 40 36 37 c21 21
41 38 46 38 5 1 5 -31 1 -71z m-5618 -53 l10 -44 -60 -68 c-112 -128 -113
-127 -40 20 37 75 70 137 74 137 3 0 10 -20 16 -45z m191 13 c-8 -13 -38 -62
-67 -111 -46 -76 -71 -100 -71 -66 0 11 139 199 147 199 3 0 -1 -10 -9 -22z
m-289 -85 c-36 -78 -72 -138 -56 -92 3 9 9 38 13 65 5 37 15 57 41 82 19 17
36 32 38 32 2 0 -14 -39 -36 -87z m157 28 c-15 -51 -26 -62 -26 -26 0 22 23
65 35 65 2 0 -2 -18 -9 -39z m6126 -153 c-4 -4 -26 -9 -48 -11 -44 -2 -45 1
-24 82 17 69 22 69 52 1 16 -35 25 -67 20 -72z m-6158 92 c3 -17 2 -40 -3 -53
-10 -25 -220 -311 -226 -306 -2 2 4 46 13 96 l17 93 88 100 c49 55 92 100 97
100 4 0 10 -14 14 -30z m1 -150 c-14 -22 -27 -40 -29 -40 -3 0 5 28 16 62 18
54 22 59 29 39 7 -16 2 -32 -16 -61z m-50 -45 c-16 -51 -72 -132 -136 -196
-39 -39 -66 -51 -56 -25 7 18 200 276 204 273 1 -2 -4 -25 -12 -52z m-193
-122 c-8 -51 -19 -93 -23 -93 -16 0 -3 102 21 164 18 48 19 26 2 -71z"/>
</g>
</svg>
